<svg xmlns="http://www.w3.org/2000/svg" height="1296" width="1546" version="1.1" xmlns:xlink="http://www.w3.org/1999/xlink" xmlns:svgjs="http://svgjs.com/svgjs"><rect fill="none" width="1546" height="1296"></rect><g><path d="M1378.95 1005.62L1328.85 999.83 1336.15 956.53C1336.35 955.53 1335.75 954.63 1334.85 954.33 1333.95 954.03 1332.95 954.43 1332.45 955.23L1312.45 990.83 1279.15 954.73C1278.45 954.03 1277.35 953.83 1276.55 954.43 1275.75 955.03 1275.45 956.03 1275.85 956.93L1296.75 1000.72 1261.25 1008.72C1260.35 1008.92 1259.65 1009.72 1259.65 1010.72 1259.65 1011.72 1260.35 1012.52 1261.25 1012.62L1297.35 1019.12 1282.85 1073.92C1282.55 1074.92 1283.05 1075.92 1284.05 1076.32 1284.25 1076.42 1284.55 1076.52 1284.85 1076.52 1285.55 1076.52 1286.25 1076.12 1286.55 1075.52L1313.85 1028.42 1338.35 1055.02C1338.95 1055.72 1340.05 1055.92 1340.85 1055.42 1341.65 1054.92 1342.05 1053.92 1341.65 1053.02L1329.35 1018.62 1378.95 1009.52C1379.95 1009.32 1380.65 1008.52 1380.55 1007.52 1380.45 1006.52 1379.95 1005.72 1378.95 1005.62Z" fill="#ff4f32" opacity="1" stroke-width="4" stroke="none"></path></g><g><path d="M1121.5 230.2C1129.4 230.2 1135.8 223.8 1135.8 215.9 1135.8 208 1129.4 201.6 1121.5 201.6 1113.6 201.6 1107.2 208 1107.2 215.9 1107.2 223.8 1113.6 230.2 1121.5 230.2Z" fill="#ffffff" opacity="1" stroke-width="4" stroke="none"></path></g><g><path d="M1173.35 800.8C1203.05 822.3 1270.05 797 1311.45 772.2 1357.45 744.6 1359.55 714.9 1341.15 714.9 1315.55 714.9 1252.15 793.7 1288.95 811 1319.35 825.4 1374.85 799.8 1389.15 816.1 1403.45 832.4 1409.65 868.3 1449.45 886.7" stroke="#ffffff" stroke-width="4" stroke-linecap="round" stroke-linejoin="round" opacity="1" fill="none"></path></g><g><path d="M303.3 1036.3C312.36 1036.3 319.7 1028.96 319.7 1019.9 319.7 1010.84 312.36 1003.5 303.3 1003.5 294.24 1003.5 286.9 1010.84 286.9 1019.9 286.9 1028.96 294.24 1036.3 303.3 1036.3Z" fill="#ffa0dc" opacity="1" stroke-width="4" stroke="none"></path></g><g><path d="M1150.7 1118.1C1160.58 1118.1 1168.6 1110.09 1168.6 1100.2 1168.6 1090.31 1160.58 1082.3 1150.7 1082.3 1140.81 1082.3 1132.8 1090.31 1132.8 1100.2 1132.8 1110.09 1140.81 1118.1 1150.7 1118.1Z" fill="#61ccff" opacity="1" stroke-width="4" stroke="none"></path></g><g><path d="M162.26 513.5C172.7 513.5 181.16 505.04 181.16 494.6 181.16 484.16 172.7 475.7 162.26 475.7 151.82 475.7 143.36 484.16 143.36 494.6 143.36 505.04 151.82 513.5 162.26 513.5Z" fill="#61ccff" opacity="1" stroke-width="4" stroke="none"></path></g><g><path d="M248.1 642.93C259.07 635.02 261.56 619.71 253.65 608.74 245.73 597.76 230.42 595.27 219.45 603.19 208.47 611.1 205.99 626.41 213.9 637.39 221.81 648.36 237.12 650.85 248.1 642.93Z" fill="#efdcd7" opacity="1" stroke-width="4" stroke="none"></path></g><g><path d="M105.05 854.4C144.55 819.6 217.75 772.6 279.05 812.5 279.05 812.5 218.75 733.7 249.45 696.9 289.55 648.7 407.55 779.7 389.85 802.2 371.65 825.2 330.95 722.3 352.25 665.1 369.05 620.1 449.25 687.6 462.15 727.5" stroke="#ffffff" stroke-width="4" stroke-linecap="round" stroke-linejoin="round" opacity="1" fill="none"></path></g><g><path d="M1182.78 322.8H1098.88C1098.88 322.8 1089.18 372.4 1118.38 398.7H1202.28C1173.08 372.4 1182.78 322.8 1182.78 322.8Z" fill="#efdcd7" opacity="1" stroke-width="4" stroke="none"></path><path d="M1065.18 279.9H981.28C981.28 279.9 971.58 329.5 1000.78 355.8H1084.68C1055.38 329.5 1065.18 279.9 1065.18 279.9Z" fill="#ffc930" opacity="1" stroke-width="4" stroke="none"></path></g><g><path d="M858.25 161.3H944.75C964.65 161.3 980.75 177.4 980.75 197.3V198.9C980.75 218.8 964.65 234.9 944.75 234.9H858.25C838.35 234.9 822.25 218.8 822.25 198.9V197.3C822.25 177.4 838.35 161.3 858.25 161.3Z" fill="#ff4f32" opacity="1" stroke-width="4" stroke="none"></path><path d="M874.05 202.9C879.96 202.9 884.75 198.11 884.75 192.2 884.75 186.29 879.96 181.5 874.05 181.5 868.14 181.5 863.35 186.29 863.35 192.2 863.35 198.11 868.14 202.9 874.05 202.9Z" stroke="#ffffff" stroke-width="4" stroke-linecap="round" stroke-linejoin="round" opacity="1" fill="none"></path><path d="M882.65 198.7L869.75 214.8" stroke="#ffffff" stroke-width="4" stroke-linecap="round" stroke-linejoin="round" opacity="1" fill="none"></path><path d="M907.35 202.9C913.26 202.9 918.05 198.11 918.05 192.2 918.05 186.29 913.26 181.5 907.35 181.5 901.44 181.5 896.65 186.29 896.65 192.2 896.65 198.11 901.44 202.9 907.35 202.9Z" stroke="#ffffff" stroke-width="4" stroke-linecap="round" stroke-linejoin="round" opacity="1" fill="none"></path><path d="M915.95 198.7L903.05 214.8" stroke="#ffffff" stroke-width="4" stroke-linecap="round" stroke-linejoin="round" opacity="1" fill="none"></path><path d="M936.35 190.6V205.7" stroke="#ffffff" stroke-width="4" stroke-linecap="round" stroke-linejoin="round" opacity="1" fill="none"></path><path d="M943.85 198.2H928.85" stroke="#ffffff" stroke-width="4" stroke-linecap="round" stroke-linejoin="round" opacity="1" fill="none"></path></g><g><path d="M1063.8 527H925.8C918.2 527 912 520.8 912 513.2V416.1C912 408.5 918.2 402.3 925.8 402.3H963.1C968 402.3 972.5 404.9 975 409.1L979.3 416.4C981.8 420.6 986.3 423.2 991.2 423.2H1063.9C1071.5 423.2 1077.7 429.4 1077.7 437V513.2C1077.7 520.8 1071.5 527 1063.8 527 1063.9 527 1063.9 527 1063.8 527Z" fill="#61ccff" opacity="1" stroke-width="4" stroke="none"></path></g><g><path d="M488.7 757.1H725.7C742.7 757.1 756.6 770.9 756.6 788V1025C756.6 1042 742.8 1055.9 725.7 1055.9H488.7C471.7 1055.9 457.8 1042.1 457.8 1025V788C457.8 770.9 471.6 757.1 488.7 757.1Z" fill="#61ccff" opacity="1" stroke-width="4" stroke="none"></path><path d="M496.7 998.5H717.6" stroke="#ffffff" stroke-width="4" stroke-linecap="round" stroke-linejoin="round" opacity="1" fill="none"></path><path d="M496.7 998.5V822.6" stroke="#ffffff" stroke-width="4" stroke-linecap="round" stroke-linejoin="round" opacity="1" fill="none"></path><path d="M486.5 901.3C525.4 901.3 522.3 954.5 549.9 954.5 590.8 954.5 598 841 644 841 690 841 683.9 905.4 715.6 905.4" stroke="#ffa0dc" stroke-width="4" stroke-linecap="round" stroke-linejoin="round" opacity="1" fill="none"></path><path d="M606.1 889.1C615.16 889.1 622.5 881.76 622.5 872.7 622.5 863.64 615.16 856.3 606.1 856.3 597.04 856.3 589.7 863.64 589.7 872.7 589.7 881.76 597.04 889.1 606.1 889.1Z" fill="#ffffff" opacity="1" stroke-width="4" stroke="none"></path><path d="M537.6 997.5V988.3" stroke="#ffffff" stroke-width="4" stroke-linecap="round" stroke-linejoin="round" opacity="1" fill="none"></path><path d="M578.5 997.5V988.3" stroke="#ffffff" stroke-width="4" stroke-linecap="round" stroke-linejoin="round" opacity="1" fill="none"></path><path d="M619.4 997.5V988.3" stroke="#ffffff" stroke-width="4" stroke-linecap="round" stroke-linejoin="round" opacity="1" fill="none"></path><path d="M660.3 997.5V988.3" stroke="#ffffff" stroke-width="4" stroke-linecap="round" stroke-linejoin="round" opacity="1" fill="none"></path><path d="M701.3 997.5V988.3" stroke="#ffffff" stroke-width="4" stroke-linecap="round" stroke-linejoin="round" opacity="1" fill="none"></path></g><g><path d="M330.72 602.43C321.84 602.41 313.33 598.88 307.05 592.6 300.77 586.32 297.23 577.81 297.23 568.93V251.47C297.23 242.59 300.77 234.08 307.05 227.8 313.33 221.52 321.84 217.98 330.72 217.97H742.6C751.48 217.98 759.99 221.52 766.27 227.8 772.55 234.08 776.08 242.59 776.09 251.47V568.93C776.08 577.81 772.55 586.32 766.27 592.6 759.99 598.88 751.48 602.41 742.6 602.43H330.72Z" fill="#ffffff" opacity="1" stroke-width="4" stroke="none"></path><path d="M297.25 289.93H777.57" stroke="#ffffff" stroke-width="4" opacity="1" fill="none"></path><path d="M332.47 265.95C339.5 265.95 345.21 260.25 345.21 253.22 345.21 246.18 339.5 240.48 332.47 240.48 325.43 240.48 319.73 246.18 319.73 253.22 319.73 260.25 325.43 265.95 332.47 265.95Z" fill="#ffffff" opacity="1" stroke-width="4" stroke="none"></path><path d="M371.07 265.95C378.11 265.95 383.81 260.25 383.81 253.22 383.81 246.18 378.11 240.48 371.07 240.48 364.04 240.48 358.33 246.18 358.33 253.22 358.33 260.25 364.04 265.95 371.07 265.95Z" fill="#ffffff" opacity="1" stroke-width="4" stroke="none"></path><path d="M409.67 265.95C416.71 265.95 422.41 260.25 422.41 253.22 422.41 246.18 416.71 240.48 409.67 240.48 402.64 240.48 396.93 246.18 396.93 253.22 396.93 260.25 402.64 265.95 409.67 265.95Z" fill="#ffffff" opacity="1" stroke-width="4" stroke="none"></path></g><g><path d="M430.14 387.05H378.33V548.3H430.14V387.05Z" fill="#61ccff" opacity="1" stroke-width="4" stroke="none"></path><path d="M617.56 363.47H565.75V548.3H617.56V363.47Z" fill="#efdcd7" opacity="1" stroke-width="4" stroke="none"></path><path d="M523.78 329.41H471.97V548.3H523.78V329.41Z" fill="#ffa0dc" opacity="1" stroke-width="4" stroke="none"></path><path d="M711.2 455.17H659.39V548.3H711.2V455.17Z" fill="#ffa0dc" opacity="1" stroke-width="4" stroke="none"></path><path d="M352.42 548.3H737.11" stroke="#000000" stroke-width="4" stroke-linecap="round" stroke-linejoin="round" opacity="1" fill="none"></path></g><g><path d="M324.22 381.63L258.82 367.23 278.62 322.93C279.02 322.03 278.72 321.03 277.92 320.43 277.12 319.93 276.02 320.03 275.32 320.63L240.52 355.83 206.92 314.93C206.32 314.13 205.22 313.93 204.42 314.43 203.62 314.93 203.22 315.93 203.52 316.83L221.22 365.43H170.22C169.22 365.43 168.42 366.13 168.22 367.13 168.02 368.13 168.62 369.03 169.52 369.33L220.92 387.03 201.12 434.63C200.72 435.53 201.12 436.53 201.92 437.13 202.72 437.63 203.82 437.53 204.52 436.83L239.22 398.63 282.42 448.93C282.82 449.43 283.42 449.63 283.92 449.63 284.32 449.63 284.72 449.53 285.02 449.33 285.82 448.83 286.12 447.73 285.72 446.83L258.52 388.83 323.92 385.53C324.92 385.53 325.72 384.73 325.82 383.73 325.92 382.83 325.22 381.93 324.22 381.63Z" fill="#ffc930" opacity="1" stroke-width="4" stroke="none"></path></g><g><path d="M993.5 616.9H1217.6C1229.1 616.9 1238.5 626.3 1238.5 637.8V894.7C1238.5 906.2 1229.1 915.6 1217.6 915.6H993.5C982 915.6 972.6 906.2 972.6 894.7V637.8C972.6 626.2 982 616.9 993.5 616.9Z" fill="#efdcd7" opacity="1" stroke-width="4" stroke="none"></path><path d="M1020.3 682.9L1029.5 692.1 1044.4 677.3" stroke="#ffffff" stroke-width="4" stroke-linecap="round" stroke-linejoin="round" opacity="1" fill="none"></path><path d="M1038.22 772.62C1042.85 769.41 1044 763.06 1040.8 758.43 1037.59 753.79 1031.24 752.64 1026.61 755.85 1021.97 759.05 1020.82 765.41 1024.02 770.04 1027.23 774.67 1033.59 775.83 1038.22 772.62Z" stroke="#ffffff" stroke-width="4" stroke-linecap="round" stroke-linejoin="round" opacity="1" fill="none"></path><path d="M1038.21 852.02C1042.84 848.81 1044 842.46 1040.79 837.83 1037.59 833.2 1031.23 832.04 1026.6 835.25 1021.97 838.45 1020.81 844.81 1024.02 849.44 1027.23 854.07 1033.58 855.23 1038.21 852.02Z" stroke="#ffffff" stroke-width="4" stroke-linecap="round" stroke-linejoin="round" opacity="1" fill="none"></path><path d="M1073.3 686.6H1166.3" stroke="#ffa0dc" stroke-width="4" stroke-linecap="round" stroke-linejoin="round" opacity="1" fill="none"></path><path d="M1073.3 764.3H1166.3" stroke="#ffa0dc" stroke-width="4" stroke-linecap="round" stroke-linejoin="round" opacity="1" fill="none"></path><path d="M1073.3 843H1166.3" stroke="#ffa0dc" stroke-width="4" stroke-linecap="round" stroke-linejoin="round" opacity="1" fill="none"></path></g><g><path d="M1309.2 868.6C1315.55 868.6 1320.7 863.45 1320.7 857.1 1320.7 850.75 1315.55 845.6 1309.2 845.6 1302.85 845.6 1297.7 850.75 1297.7 857.1 1297.7 863.45 1302.85 868.6 1309.2 868.6Z" fill="#ffa0dc" opacity="1" stroke-width="4" stroke="none"></path></g><g><path d="M1212.64 702.34C1275.93 702.34 1327.24 651.03 1327.24 587.74 1327.24 524.45 1275.93 473.14 1212.64 473.14 1149.35 473.14 1098.04 524.45 1098.04 587.74 1098.04 651.03 1149.35 702.34 1212.64 702.34Z" fill="#ffa0dc" opacity="0.2" stroke-width="4" stroke="none"></path><path d="M1241.54 629.44H1255.64" stroke="#23211f" stroke-width="4" stroke-linecap="round" stroke-linejoin="round" opacity="1" fill="none"></path><path d="M1212.64 676.34C1275.93 676.34 1327.24 625.03 1327.24 561.74 1327.24 498.45 1275.93 447.14 1212.64 447.14 1149.35 447.14 1098.04 498.45 1098.04 561.74 1098.04 625.03 1149.35 676.34 1212.64 676.34Z" fill="#ffffff" opacity="1" stroke-width="4" stroke="none"></path><path d="M1256.74 630.54V619.64L1192.24 619.54V631.54H1170.74C1154.44 631.54 1141.34 641.14 1135.44 646.34 1182.14 689.04 1254.54 685.74 1297.24 639.04 1297.84 638.34 1298.54 637.64 1299.14 636.94 1292.94 632.84 1285.64 630.64 1278.14 630.44L1256.74 630.54Z" fill="#61ccff" opacity="1" stroke-width="4" stroke="none"></path><path d="M1159.04 567.44C1161.34 555.84 1161.24 541.54 1163.24 528.64 1164.64 519.84 1166.94 511.74 1171.74 505.74 1183.54 491.04 1215.24 485.34 1240.64 503.94 1266.04 522.54 1264.74 548.74 1263.74 560.54L1256.64 600.24 1256.74 619.94H1192.24L1192.14 609.24C1192.14 609.24 1178.04 612.24 1169.74 606.54 1158.54 598.84 1155.14 586.94 1159.04 567.44Z" fill="#ac704e" opacity="1" stroke-width="4" stroke="none"></path><path d="M1171.74 505.74C1183.54 491.04 1217.14 481.84 1242.54 500.44 1267.94 519.04 1264.74 548.74 1263.74 560.54L1256.64 600.24C1256.64 600.24 1237.54 594.24 1229.44 579.04 1229.44 579.04 1257.14 566.64 1244.54 548.84 1232.44 531.74 1211.34 552.84 1211.34 552.84 1199.24 548.84 1187.14 531.64 1187.14 531.64 1169.04 532.64 1163.24 528.54 1163.24 528.54 1164.64 519.84 1166.94 511.74 1171.74 505.74Z" fill="#221f1f" opacity="1" stroke-width="4" stroke="none"></path><path d="M1190.14 561.34C1191.85 561.34 1193.24 559.95 1193.24 558.24 1193.24 556.53 1191.85 555.14 1190.14 555.14 1188.43 555.14 1187.04 556.53 1187.04 558.24 1187.04 559.95 1188.43 561.34 1190.14 561.34Z" fill="#000000" opacity="1" stroke-width="4" stroke="none"></path><path d="M1168.04 559.24C1169.75 559.24 1171.14 557.85 1171.14 556.14 1171.14 554.43 1169.75 553.04 1168.04 553.04 1166.32 553.04 1164.94 554.43 1164.94 556.14 1164.94 557.85 1166.32 559.24 1168.04 559.24Z" fill="#000000" opacity="1" stroke-width="4" stroke="none"></path><path d="M1174.74 566.44C1174.24 568.14 1173.94 569.64 1174.24 570.24 1174.74 571.14 1175.54 571.94 1176.44 572.44" stroke="#23211f" stroke-width="4" stroke-linecap="round" stroke-linejoin="round" opacity="1" fill="none"></path><path d="M1185.04 581.14C1183.14 582.94 1180.44 583.74 1177.84 583.14" stroke="#23211f" stroke-width="4" stroke-linecap="round" stroke-linejoin="round" opacity="1" fill="none"></path><path d="M1204.44 606.74C1200.84 608.34 1195.94 608.04 1192.14 609.24" stroke="#23211f" stroke-width="4" stroke-linecap="round" stroke-linejoin="round" opacity="1" fill="none"></path><path d="M1229.44 559.94L1222.44 564.94" stroke="#23211f" stroke-width="4" stroke-linecap="round" stroke-linejoin="round" opacity="1" fill="none"></path></g><g><path d="M1326.57 417.39H1273.82C1254.43 417.39 1238.66 433.16 1238.66 452.56 1238.66 469.82 1251.2 484.49 1268.23 487.25V505.3L1294.01 487.72H1326.57C1345.96 487.72 1361.73 471.95 1361.73 452.56 1361.73 433.08 1345.96 417.39 1326.57 417.39Z" fill="#ffa0dc" opacity="1" stroke-width="4" stroke="none"></path><path d="M1280.45 456.81C1283.1 456.81 1285.26 454.66 1285.26 452 1285.26 449.35 1283.1 447.19 1280.45 447.19 1277.79 447.19 1275.64 449.35 1275.64 452 1275.64 454.66 1277.79 456.81 1280.45 456.81Z" fill="#ffffff" opacity="1" stroke-width="4" stroke="none"></path><path d="M1300.16 456.81C1302.81 456.81 1304.97 454.66 1304.97 452 1304.97 449.35 1302.81 447.19 1300.16 447.19 1297.5 447.19 1295.35 449.35 1295.35 452 1295.35 454.66 1297.5 456.81 1300.16 456.81Z" fill="#ffffff" opacity="1" stroke-width="4" stroke="none"></path><path d="M1319.95 456.81C1322.6 456.81 1324.76 454.66 1324.76 452 1324.76 449.35 1322.6 447.19 1319.95 447.19 1317.29 447.19 1315.14 449.35 1315.14 452 1315.14 454.66 1317.29 456.81 1319.95 456.81Z" fill="#ffffff" opacity="1" stroke-width="4" stroke="none"></path></g><g><path d="M416.24 989.8H508.04C521.11 989.8 531.69 1000.38 531.69 1013.45V1062.71C531.69 1075.78 521.11 1086.36 508.04 1086.36H416.24C403.17 1086.36 392.59 1075.78 392.59 1062.71V1013.45C392.59 1000.38 403.17 989.8 416.24 989.8Z" fill="#ffa0dc" opacity="0.2" stroke-width="4" stroke="none"></path><path d="M408.08 974.99H499.88C512.95 974.99 523.53 985.57 523.53 998.64V1047.9C523.53 1060.97 512.95 1071.55 499.88 1071.55H408.08C395.01 1071.55 384.43 1060.97 384.43 1047.9V998.64C384.43 985.57 395.01 974.99 408.08 974.99Z" fill="#ffa0dc" opacity="1" stroke-width="4" stroke="none"></path><path d="M453.94 1044.95L516.13 981.49H391.76L453.94 1044.95Z" fill="#a8819a" opacity="0.2" stroke-width="4" stroke="none"></path><path d="M453.94 1031.2L516.09 981.54C511.97 977.48 506.23 974.99 499.88 974.99H408.08C401.73 974.99 395.99 977.48 391.84 981.49L453.94 1031.2Z" fill="#ffa0dc" opacity="1" stroke-width="4" stroke="none"></path><path d="M515.82 981.71L453.94 1031.13 391.96 981.61" stroke="#a8819a" stroke-width="4" stroke-linecap="round" stroke-linejoin="round" opacity="1" fill="none"></path><path d="M466.94 1022.14L517.41 1062.56" stroke="#a8819a" stroke-width="4" stroke-linecap="round" stroke-linejoin="round" opacity="1" fill="none"></path><path d="M390.17 1062.33L440.8 1021.91" stroke="#a8819a" stroke-width="4" stroke-linecap="round" stroke-linejoin="round" opacity="1" fill="none"></path></g><g><path d="M478.3 797C514.75 797 544.3 767.45 544.3 731 544.3 694.55 514.75 665 478.3 665 441.85 665 412.3 694.55 412.3 731 412.3 767.45 441.85 797 478.3 797Z" fill="#ff4f32" opacity="1" stroke-width="4" stroke="none"></path><path d="M496.3 749C513.2 732.1 518.8 710.3 508.8 700.3 507.3 698.8 505.5 697.6 503.6 696.8 501.9 696.1 500.1 695.7 498.3 695.5 496.8 695.3 495.3 696.1 494.7 697.4L486.7 712.9C485.8 714.7 486.5 716.8 488.2 717.7 488.3 717.8 488.4 717.8 488.5 717.8L492.9 719.6C494.7 720.3 495.5 722.3 494.8 724 494.7 724.2 494.6 724.4 494.5 724.5 488.8 733.6 481.1 741.3 472 747.1 470.4 748.1 468.3 747.6 467.3 746 467.2 745.8 467.1 745.6 467 745.5L465.2 741C464.5 739.2 462.4 738.3 460.6 739L460.3 739.1 444.8 747.1C443.5 747.7 442.7 749.1 442.9 750.6 443.1 752.5 443.5 754.3 444.2 756.1 445 758.1 446.2 759.8 447.7 761.3 457.6 771.5 479.4 765.9 496.3 749Z" fill="#ffffff" opacity="1" stroke-width="4" stroke="none"></path></g><g><path d="M771.9 314.05C755.1 304.75 738.9 300.75 728.1 305.05 703.1 313.95 691.8 356.05 691.4 357.75 691.4 357.75 682.2 357.65 680.9 361.35 679.4 365.95 686.1 372.75 686.1 372.75 682.5 383.15 678.5 397.25 684.4 409.45 690 420.95 704.7 426.95 723.1 423.95L722.5 430.75 794.1 441.55C795 438.55 800.3 384.35 801.3 374.05 803.3 352.25 798.8 328.85 771.9 314.05Z" fill="#ac704e" opacity="1" stroke-width="4" stroke="none"></path><path d="M723.2 424.05C723.2 424.05 734.2 421.45 740.9 418.15L721.7 440.05 723.2 424.05Z" fill="#ffa0dc" opacity="0.2" stroke-width="4" stroke="none"></path><path d="M967.6 1107.05L1040.1 1074.25 1036.29 1054.02C1035.6 1049.85 1034.5 1045.85 1033.4 1042.05 1032.6 1039.35 1031.8 1036.55 1030.9 1033.75 1027.5 1022.55 1023.4 1010.05 1018.4 996.25 1013.3 982.05 1008 969.25 1002.6 957.45L904.5 992.05C918 1012.55 931 1033.45 939.1 1049.95 941.3 1054.15 943.1 1058.75 944.7 1063.25L967.6 1107.05Z" fill="#ac704e" opacity="1" stroke-width="4" stroke="none"></path><path d="M1006.5 1066.75C993.3 1072.35 989.3 1094.15 980.9 1095.45 972.6 1096.75 980.3 1075.75 975.1 1063.45 970.5 1052.65 959.9 1056.55 944.4 1063.15 945.4 1065.95 946.2 1068.75 946.9 1071.55 948.4 1078.05 948.6 1083.65 947.1 1088.05 939.2 1111.05 918.5 1123.15 918 1145.05L918.1 1145.65 1045.1 1091.65V1091.55C1042.7 1079.05 1039.8 1066.25 1036.4 1053.75L1006.5 1066.75Z" fill="#efdcd7" opacity="1" stroke-width="4" stroke="none"></path><path d="M962.9 1089.35L947.63 1087.92" stroke="#ff4f32" stroke-width="4" stroke-linecap="round" stroke-linejoin="round" opacity="1" fill="none"></path><path d="M958.9 1105.55L941.91 1100.18" stroke="#ff4f32" stroke-width="4" stroke-linecap="round" stroke-linejoin="round" opacity="1" fill="none"></path><path d="M678.6 409.05C670.3 405.35 662.4 419.75 655.1 427.45 651.7 431.05 647.6 432.85 645.9 429.45 638.7 415.15 672.5 411.05 675.6 404.95 678.7 398.85 673.6 394.75 661.3 396.75 642.9 391.65 625.8 399.95 618.3 412.05 610.1 425.35 610.8 429.55 594.8 458.05 591.9 463.25 588.9 468.85 586.1 474.45L633.4 504.35 659.3 460.15C659.2 460.15 687.8 413.15 678.6 409.05Z" fill="#ac704e" opacity="1" stroke-width="4" stroke="none"></path><path d="M842.2 484.75C828.9 460.75 806.4 446.85 794.1 441.75 794.4 440.85 795 435.95 795.7 429.15L722.5 429.45 721.4 440.55C721.4 440.55 702.1 440.95 688.7 444.65 677.5 447.75 669.3 450.95 659 460.15L628.3 496.85 586.5 473.15C566.3 513.35 550.8 562.95 580.2 586.85 619.1 618.55 679.4 560.35 679.4 560.35L700.1 627.95 812.7 629.75 832.9 646.05C832.9 646.05 848.9 644.55 858.3 639.05 902.4 613.85 857.6 512.35 842.2 484.75Z" fill="#ffc930" opacity="1" stroke-width="4" stroke="none"></path><path d="M888.2 483.65C880 420.25 815.6 422.25 806.4 375.25 800.9 347.15 801.6 324.75 774.7 309.85 757.9 300.55 738.9 300.75 728.1 305.05 714.6 309.85 705.4 323.05 700.1 334.45L714.7 347.35C714.7 347.35 738.33 334.26 737.9 335.25 727.7 348.55 722.9 355.25 722.9 355.25L738.7 370.45C738.7 370.45 769.3 354.05 775.6 373.65 781.9 393.25 751.1 406.95 751.1 406.95 745 464.15 770.6 483.75 770.6 483.75H793.5C793.5 483.75 786.34 453.48 788 455.15 797.2 467.45 813.1 483.75 813.1 483.75L888.2 483.65Z" fill="#221f1f" opacity="1" stroke-width="4" stroke="none"></path><path d="M812.6 627.85L826.8 541.95" stroke="#3b3934" stroke-width="4" stroke-linecap="round" stroke-linejoin="round" opacity="1" fill="none"></path><path d="M819.7 593.05L834 599.15" stroke="#3b3934" stroke-width="4" stroke-linecap="round" stroke-linejoin="round" opacity="1" fill="none"></path><path d="M680.2 559.65L702.1 541.45" stroke="#3b3934" stroke-width="4" stroke-linecap="round" stroke-linejoin="round" opacity="1" fill="none"></path><path d="M634.6 407.95C641.68 402.56 651.93 398.4 661.14 396.81" stroke="#23211f" stroke-width="4" stroke-linecap="round" stroke-linejoin="round" opacity="1" fill="none"></path><path d="M695.8 381.85L704.2 381.45" stroke="#23211f" stroke-width="4" stroke-linecap="round" stroke-linejoin="round" opacity="1" fill="none"></path><path d="M723.8 423.85C727.9 422.35 731.9 420.85 735.9 419.35" stroke="#23211f" stroke-width="4" stroke-linecap="round" stroke-linejoin="round" opacity="1" fill="none"></path><path d="M722.5 440.65H731.6" stroke="#3b3934" stroke-width="4" stroke-linecap="round" stroke-linejoin="round" opacity="1" fill="none"></path><path d="M748 386.25L757 381.85" stroke="#23211f" stroke-width="4" stroke-linecap="round" stroke-linejoin="round" opacity="1" fill="none"></path><path d="M706.7 364.35C708.47 364.35 709.9 362.92 709.9 361.15 709.9 359.38 708.47 357.95 706.7 357.95 704.93 357.95 703.5 359.38 703.5 361.15 703.5 362.92 704.93 364.35 706.7 364.35Z" fill="#221f1f" opacity="1" stroke-width="4" stroke="none"></path><path d="M803.9 325.15C819.42 325.15 832 312.57 832 297.05 832 281.53 819.42 268.95 803.9 268.95 788.38 268.95 775.8 281.53 775.8 297.05 775.8 312.57 788.38 325.15 803.9 325.15Z" fill="#221f1f" opacity="1" stroke-width="4" stroke="none"></path><path d="M751.1 285.25L818.7 347.65" stroke="#ff4f32" stroke-width="4" stroke-linecap="round" stroke-linejoin="round" opacity="1" fill="none"></path><path d="M1012.5 981.05C1009.2 972.75 1005.8 964.85 1002.4 957.45L905.3 993.45 1012.5 981.05Z" fill="#23211f" opacity="0.2" stroke-width="4" stroke="none"></path><path d="M813.1 1090.55C814.5 1077.95 815.7 1063.45 816.6 1047.15 817.4 1033.35 817.6 1020.35 817.2 1008.35L715 1008.25C719.3 1032.25 722.5 1054.75 722.7 1072.25 722.7 1075.75 722.7 1078.95 722.5 1082.15L730 1124.35 746.2 1136.95 804.4 1130.35 810.6 1109.65C811.2 1105.35 811.8 1101.05 812.3 1096.75 812.7 1094.65 813 1092.65 813.1 1090.55Z" fill="#ac704e" opacity="1" stroke-width="4" stroke="none"></path><path d="M744.9 1125.95C736.7 1123.95 752.1 1107.55 752.1 1094.25 752.1 1082.15 740.3 1081.95 722.6 1081.95H722.5C722.1 1087.65 721.2 1092.65 719.8 1096.65 718.9 1099.35 717.4 1101.95 715.5 1104.05 699.1 1122.15 675.5 1125.85 666.4 1144.95L666.5 1149.15 802.9 1147.25 804.4 1144.95C807 1133.15 809.1 1121.25 810.7 1109.45H779.7C765.5 1109.55 753.2 1128.05 744.9 1125.95Z" fill="#efdcd7" opacity="1" stroke-width="4" stroke="none"></path><path d="M817.3 1008.45H715.1L817.2 1034.75C817.5 1025.55 817.5 1016.75 817.3 1008.45Z" fill="#23211f" opacity="0.2" stroke-width="4" stroke="none"></path><path d="M936.3 847.75C907.6 807.35 900.8 756.45 876.1 706.15 851.4 655.85 812.5 627.85 812.5 627.85H778.1C778.1 627.75 778 627.75 778 627.75H700.1C700.1 627.75 681.2 751.35 697.3 903.05 700.7 935.65 708.8 975.75 715 1010.45L834.7 1011.05C843.9 978.15 807.4 935.15 798.4 896.85 792.6 871.85 796.5 841.65 801.3 810.55 816.9 842.95 834.2 876.95 852.4 909.95 867.1 936.45 887.3 965.95 905.4 993.55L1021.3 951.05C1012 897.85 950.9 868.25 936.3 847.75Z" fill="#ffa0dc" opacity="1" stroke-width="4" stroke="none"></path><path d="M812.6 627.85L821.23 634.91 832.8 646.15C833.1 646.15 845 644.95 854.1 641.15 831 623.55 822.3 568.65 822.3 568.65L812.6 627.85Z" fill="#3b3934" opacity="0.2" stroke-width="4" stroke="none"></path><path d="M613.4 488.35L597.7 538.35 628.4 496.85 613.4 488.35Z" fill="#3b3934" opacity="0.2" stroke-width="4" stroke="none"></path><path d="M728.2 1112.05L714.93 1104.74" stroke="#ff4f32" stroke-width="4" stroke-linecap="round" stroke-linejoin="round" opacity="1" fill="none"></path><path d="M717.7 1124.35L705.43 1113.84" stroke="#ff4f32" stroke-width="4" stroke-linecap="round" stroke-linejoin="round" opacity="1" fill="none"></path><path d="M813.2 744.85C833.5 845.55 866.6 859.35 871.2 941.35 864.4 930.65 854.6 914.35 849 904.25 819.8 847.85 826 864.15 802 811.45L813.2 744.85Z" fill="#a8819a" opacity="0.2" stroke-width="4" stroke="none"></path><path d="M849.4 665.45H831.1L836.6 685.85C839.4 696.15 850.6 704.45 858.8 704.45 865.6 704.45 869.5 702.35 871.9 698.95" stroke="#a8819a" stroke-width="4" stroke-linecap="round" stroke-linejoin="round" opacity="1" fill="none"></path><path d="M801.2 810.55C804.6 782.05 812.9 754.15 814.6 726.45" stroke="#a07590" stroke-width="4" stroke-linecap="round" stroke-linejoin="round" opacity="1" fill="none"></path><path d="M776.7 704.55C786.9 704.55 793 696.25 790.3 686.05L784.8 665.75H747.8L753.3 686.05C756.1 696.25 766.6 704.55 776.7 704.55Z" stroke="#a8819a" stroke-width="4" stroke-linecap="round" stroke-linejoin="round" opacity="1" fill="none"></path><path d="M720.8 628.95C715.1 672.95 713.1 789.15 724.6 856.95 735.8 923.45 752.2 957.15 755.7 1007.75" stroke="#a8819a" stroke-width="4" stroke-linecap="round" stroke-linejoin="round" opacity="1" fill="none"></path><path d="M598 538.35L627.6 497.35" stroke="#3b3934" stroke-width="4" stroke-linecap="round" stroke-linejoin="round" opacity="1" fill="none"></path><path d="M1047.3 1106.55L920.5 1160.05C918.7 1155.25 917.8 1149.85 917.9 1144.75L1045 1091.15C1046.9 1101.05 1047.3 1106.55 1047.3 1106.55Z" fill="#ffa0dc" opacity="1" stroke-width="4" stroke="none"></path><path d="M800.5 1160.05H662.9C663.2 1154.85 664.4 1149.75 666.5 1145.05H804.5C802.2 1155.15 800.5 1160.05 800.5 1160.05Z" fill="#ffa0dc" opacity="1" stroke-width="4" stroke="none"></path></g><g><path d="M281.75 893.86L264.45 919.77 295.96 906.91 281.75 893.86Z" fill="#ffffff" opacity="1" stroke-width="4" stroke="none"></path><path d="M281.75 893.86L264.45 919.77 295.96 906.91 281.75 893.86Z" fill="#515151" opacity="0.2" stroke-width="4" stroke="none"></path><path d="M281.75 893.86L300.01 934.18 359.68 863.25C359.81 863.12 359.68 862.93 359.49 863L281.75 893.86Z" fill="#ffffff" opacity="1" stroke-width="4" stroke="none"></path><path d="M246.51 868.65L281.75 893.86 359.55 863C359.62 862.93 359.62 862.8 359.49 862.8L246.51 868.65Z" fill="#ffffff" opacity="1" stroke-width="4" stroke="none"></path><path d="M281.75 893.86L289.4 910.77" stroke="#515151" stroke-width="4" stroke-linecap="round" stroke-linejoin="round" opacity="1" fill="none"></path><path d="M359.49 863L281.75 893.86" stroke="#515151" stroke-width="4" stroke-linecap="round" stroke-linejoin="round" opacity="1" fill="none"></path></g></svg>