<svg xmlns="http://www.w3.org/2000/svg" height="1200" width="1600" version="1.1" xmlns:xlink="http://www.w3.org/1999/xlink" xmlns:svgjs="http://svgjs.com/svgjs"><rect fill="none" width="1600" height="1200"></rect><g><path d="M1215.95 593.33L1250.55 601.63 1221.15 621.63 1231.45 655.73 1199.25 640.13 1174.85 666.03 1172.25 630.53 1137.65 622.33 1167.15 602.33 1156.95 568.33 1188.95 583.73 1213.45 557.83 1215.95 593.33Z" fill="#ff9edd" opacity="1" stroke-width="4" stroke="none"></path></g><g><path d="M498.84 854.82L510.14 789.82 445.14 801.12 460.14 816.22 432.84 843.52 456.44 867.12 483.74 839.82 498.84 854.82Z" fill="#61ccff" opacity="1" stroke-width="4" stroke="none"></path></g><g><path d="M1034.9 216.35L1100 227.65 1088.7 162.65 1073.6 177.75 1046.3 150.45 1022.7 174.05 1050 201.35 1034.9 216.35Z" fill="#61ccff" opacity="1" stroke-width="4" stroke="none"></path></g><g><path d="M443.1 210.6H790.5C817.3 210.6 839 232.3 839 259.2V665.1C839 691.9 817.3 713.6 790.5 713.6H443.1C416.3 713.6 394.6 691.9 394.6 665.1V259.2C394.6 232.4 416.3 210.6 443.1 210.6Z" fill="#ff9edd" opacity="1" stroke-width="4" stroke="none"></path></g><g><path d="M1075.84 335.65H1291.34C1303.79 335.65 1313.94 345.81 1313.94 358.26V484.86C1313.94 497.32 1303.79 507.47 1291.34 507.47H1075.84C1063.39 507.47 1053.23 497.32 1053.23 484.86V358.26C1053.23 345.81 1063.39 335.65 1075.84 335.65Z" fill="#020202" opacity="0.2" stroke-width="4" stroke="none"></path><path d="M1056.31 316.12H1271.8C1284.25 316.12 1294.41 326.27 1294.41 338.72V465.32C1294.41 477.78 1284.25 487.93 1271.8 487.93H1056.31C1043.85 487.93 1033.7 477.78 1033.7 465.32V338.72C1033.7 326.27 1043.85 316.12 1056.31 316.12Z" fill="#ffc930" opacity="1" stroke-width="4" stroke="none"></path><path d="M1294.49 348.96H1033.7V385.22H1294.49V348.96Z" fill="#020202" opacity="1" stroke-width="4" stroke="none"></path><path d="M1080.02 433.42H1113.63C1121.14 433.42 1127.2 439.48 1127.2 447.07 1127.2 454.58 1121.14 460.72 1113.63 460.72H1080.02C1072.51 460.72 1066.46 454.66 1066.46 447.07 1066.37 439.48 1072.51 433.42 1080.02 433.42Z" fill="#ffffff" opacity="1" stroke-width="4" stroke="none"></path><path d="M1241.17 460.55C1252.58 460.55 1261.82 451.31 1261.82 439.9 1261.82 428.51 1252.58 419.26 1241.17 419.26 1229.77 419.26 1220.53 428.51 1220.53 439.9 1220.53 451.31 1229.77 460.55 1241.17 460.55Z" fill="#ff9edd" opacity="1" stroke-width="4" stroke="none"></path><path d="M1214.47 460.55C1225.87 460.55 1235.12 451.31 1235.12 439.9 1235.12 428.51 1225.87 419.26 1214.47 419.26 1203.06 419.26 1193.83 428.51 1193.83 439.9 1193.83 451.31 1203.06 460.55 1214.47 460.55Z" fill="#ff9edd" opacity="1" stroke-width="4" stroke="none"></path></g><g><path d="M592.22 1038.54V1030.77C592.22 1024.58 597.19 1019.62 603.37 1019.62 609.56 1019.62 614.52 1024.58 614.52 1030.77V1038.54C614.52 1044.73 609.56 1049.69 603.37 1049.69 597.19 1049.79 592.22 1044.73 592.22 1038.54Z" fill="#000000" opacity="1" stroke-width="4" stroke="none"></path><path d="M722.93 1038.54V1030.77C722.93 1024.58 727.9 1019.62 734.08 1019.62 740.27 1019.62 745.23 1024.58 745.23 1030.77V1038.54C745.23 1044.73 740.27 1049.69 734.08 1049.69 727.99 1049.79 722.93 1044.73 722.93 1038.54Z" fill="#000000" opacity="1" stroke-width="4" stroke="none"></path><path d="M591.19 802.42H745.52C766.6 802.42 783.65 819.47 783.65 840.56V994.88C783.65 1015.96 766.6 1033.02 745.52 1033.02H591.19C570.11 1033.02 553.06 1015.96 553.06 994.88V840.56C553.06 819.47 570.11 802.42 591.19 802.42Z" fill="#cecdce" opacity="1" stroke-width="4" stroke="none"></path><path d="M668.31 973.8C693.04 973.8 713.09 953.75 713.09 929.01 713.09 904.27 693.04 884.22 668.31 884.22 643.57 884.22 623.52 904.27 623.52 929.01 623.52 953.75 643.57 973.8 668.31 973.8Z" fill="#000000" opacity="0.2" stroke-width="4" stroke="none"></path><path d="M597.84 841.12H738.67C742.05 841.12 744.77 843.84 744.77 847.21V988.04C744.77 991.41 742.05 994.13 738.67 994.13H597.84C594.47 994.13 591.75 991.41 591.75 988.04V847.21C591.75 843.84 594.47 841.12 597.84 841.12Z" stroke="#000000" stroke-width="4" opacity="1" fill="none"></path><path d="M668.31 962.46C693.04 962.46 713.09 942.41 713.09 917.67 713.09 892.93 693.04 872.88 668.31 872.88 643.57 872.88 623.52 892.93 623.52 917.67 623.52 942.41 643.57 962.46 668.31 962.46Z" fill="#fcfbfc" opacity="1" stroke-width="4" stroke="none"></path><path d="M668.31 932.94C676.74 932.94 683.58 926.1 683.58 917.67 683.58 909.24 676.74 902.4 668.31 902.4 659.87 902.4 653.03 909.24 653.03 917.67 653.03 926.1 659.87 932.94 668.31 932.94Z" fill="#000000" opacity="1" stroke-width="4" stroke="none"></path><path d="M587.91 869.88H595.69C601.87 869.88 606.84 874.85 606.84 881.03 606.84 887.22 601.87 892.19 595.69 892.19H587.91C581.73 892.19 576.76 887.22 576.76 881.03 576.67 874.94 581.73 869.88 587.91 869.88Z" fill="#000000" opacity="1" stroke-width="4" stroke="none"></path><path d="M587.91 943.06H595.69C601.87 943.06 606.84 948.03 606.84 954.21 606.84 960.4 601.87 965.36 595.69 965.36H587.91C581.73 965.36 576.76 960.4 576.76 954.21 576.67 948.03 581.73 943.06 587.91 943.06Z" fill="#000000" opacity="1" stroke-width="4" stroke="none"></path></g><g><path d="M462.71 323.37H777.71C781.01 323.37 783.71 326.07 783.71 329.37 783.71 332.67 781.01 335.37 777.71 335.37H462.71C459.41 335.37 456.71 332.67 456.71 329.37 456.71 326.07 459.41 323.37 462.71 323.37Z" fill="#ffffff" opacity="1" stroke-width="4" stroke="none"></path><path d="M702.01 356.67C717.2 356.67 729.51 344.36 729.51 329.17 729.51 313.98 717.2 301.67 702.01 301.67 686.82 301.67 674.51 313.98 674.51 329.17 674.51 344.36 686.82 356.67 702.01 356.67Z" fill="#231f20" opacity="1" stroke-width="4" stroke="none"></path><path d="M462.31 447.87H777.31C780.61 447.87 783.31 450.57 783.31 453.87 783.31 457.17 780.61 459.87 777.31 459.87H462.31C459.01 459.87 456.31 457.17 456.31 453.87 456.31 450.57 459.01 447.87 462.31 447.87Z" fill="#ffffff" opacity="1" stroke-width="4" stroke="none"></path><path d="M612.91 491.47C628.1 491.47 640.41 479.16 640.41 463.97 640.41 448.78 628.1 436.47 612.91 436.47 597.72 436.47 585.41 448.78 585.41 463.97 585.41 479.16 597.72 491.47 612.91 491.47Z" fill="#423615" opacity="0.2" stroke-width="4" stroke="none"></path><path d="M612.91 481.67C628.1 481.67 640.41 469.36 640.41 454.17 640.41 438.98 628.1 426.67 612.91 426.67 597.72 426.67 585.41 438.98 585.41 454.17 585.41 469.36 597.72 481.67 612.91 481.67Z" fill="#ffc930" opacity="1" stroke-width="4" stroke="none"></path></g><g><path d="M519.34 638.74C534.89 623.18 534.89 597.97 519.34 582.42 503.79 566.87 478.58 566.87 463.02 582.42 447.47 597.97 447.47 623.18 463.02 638.74 478.58 654.29 503.79 654.29 519.34 638.74Z" fill="#ffffff" opacity="1" stroke-width="4" stroke="none"></path><path d="M491.34 586.55V593.88" stroke="#231f20" stroke-width="4" stroke-linecap="round" stroke-linejoin="round" opacity="1" fill="none"></path><path d="M491.34 627.3V634.62" stroke="#231f20" stroke-width="4" stroke-linecap="round" stroke-linejoin="round" opacity="1" fill="none"></path><path d="M498.92 594.03H488.19C484.01 594.03 480.61 597.43 480.61 601.61 480.61 604.97 482.83 607.91 486.02 608.89L496.13 611.88C499.49 612.86 501.76 615.95 501.76 619.41 501.76 623.74 498.25 627.25 493.92 627.25H482.41" stroke="#231f20" stroke-width="4" stroke-linecap="round" stroke-linejoin="round" opacity="1" fill="none"></path></g><g><path d="M620.81 653.15C643.56 653.15 662.01 634.71 662.01 611.95 662.01 589.2 643.56 570.75 620.81 570.75 598.06 570.75 579.61 589.2 579.61 611.95 579.61 634.71 598.06 653.15 620.81 653.15Z" fill="#ffffff" opacity="1" stroke-width="4" stroke="none"></path><path d="M606.51 596.35L620.51 610.35 634.51 596.35" stroke="#000000" stroke-width="4" stroke-linecap="round" stroke-linejoin="round" opacity="1" fill="none"></path><path d="M620.51 610.35V629.45" stroke="#000000" stroke-width="4" stroke-linecap="round" stroke-linejoin="round" opacity="1" fill="none"></path><path d="M612.51 613.45H628.51" stroke="#000000" stroke-width="4" stroke-linecap="round" stroke-linejoin="round" opacity="1" fill="none"></path></g><g><path d="M745.01 653.15C767.76 653.15 786.21 634.71 786.21 611.95 786.21 589.2 767.76 570.75 745.01 570.75 722.26 570.75 703.81 589.2 703.81 611.95 703.81 634.71 722.26 653.15 745.01 653.15Z" fill="#ffc930" opacity="1" stroke-width="4" stroke="none"></path><path d="M741.41 629.45V596.45H751.91C756.61 596.45 760.41 600.25 760.41 604.95 760.41 609.65 756.61 613.45 751.91 613.45H735.41" stroke="#1d1a11" stroke-width="4" stroke-linecap="round" stroke-linejoin="round" opacity="1" fill="none"></path><path d="M735.41 621.85H748.41" stroke="#1d1a11" stroke-width="4" stroke-linecap="round" stroke-linejoin="round" opacity="1" fill="none"></path></g><g><path d="M353.11 388.65C319.11 421.65 274.11 417.65 274.11 417.65V502.65C274.11 564.65 340.11 589.65 353.11 589.65 366.11 589.65 432.11 564.65 432.11 502.65V417.65C432.11 417.65 387.11 421.65 353.11 388.65Z" fill="#215067" opacity="0.2" stroke-width="4" stroke="none"></path><path d="M339.61 376.35C305.61 409.35 260.61 405.35 260.61 405.35V490.35C260.61 552.35 326.61 577.35 339.61 577.35 352.61 577.35 418.61 552.35 418.61 490.35V405.35C418.61 405.35 373.61 409.35 339.61 376.35Z" fill="#61ccff" opacity="1" stroke-width="4" stroke="none"></path><path d="M339.61 518.05C362.37 518.05 380.81 499.61 380.81 476.85 380.81 454.1 362.37 435.65 339.61 435.65 316.86 435.65 298.41 454.1 298.41 476.85 298.41 499.61 316.86 518.05 339.61 518.05Z" fill="#ffc930" opacity="1" stroke-width="4" stroke="none"></path><path d="M326.11 475.35L337.11 486.35 353.11 467.35" stroke="#020202" stroke-width="4" stroke-linecap="round" stroke-linejoin="round" opacity="1" fill="none"></path></g><g><path d="M1224.67 998.41L1104.18 1049.22C1104.08 1049.22 1104.08 1049.22 1104.08 1049.12 1102.38 1044.53 1101.58 1039.64 1101.68 1034.85L1102.08 1033.55 1222.27 983.04C1222.37 983.04 1222.57 983.94 1222.57 983.94 1224.37 992.92 1224.77 997.71 1224.67 998.41 1224.77 998.41 1224.77 998.41 1224.67 998.41Z" fill="#cecdce" opacity="1" stroke-width="4" stroke="none"></path><path d="M1222.57 983.84C1219.68 968.16 1215.68 952.49 1211.29 937.12 1210.49 934.52 1209.6 931.53 1208.7 928.73L1208.6 928.63 1160.58 929.33 1121.55 944.2C1121.45 944.2 1121.45 944.3 1121.45 944.3 1124.74 950.79 1127.54 957.98 1129.33 964.97 1130.83 971.16 1131.03 976.35 1129.53 980.64 1121.75 1002.5 1102.58 1014.58 1101.68 1034.75 1101.68 1034.85 1101.68 1034.75 1101.68 1034.75L1222.57 983.84Z" fill="#231f20" opacity="1" stroke-width="4" stroke="none"></path><path d="M989.58 1049.32H858.7C858.6 1049.32 858.6 1049.32 858.6 1049.22 858.8 1044.43 860.1 1039.54 862.2 1035.15 862.2 1035.15 862.2 1035.05 862.3 1035.05L930.78 1029.36 993.27 1035.05C993.37 1035.05 993.37 1035.15 993.37 1035.15 991.37 1044.03 989.88 1048.72 989.58 1049.32 989.68 1049.32 989.68 1049.32 989.58 1049.32Z" fill="#cecdce" opacity="1" stroke-width="4" stroke="none"></path><path d="M916.01 965.47C915.91 965.47 915.91 965.47 916.01 965.47 916.01 975.05 915.11 983.04 912.92 989.03 912.02 991.62 910.62 994.02 908.83 996.11 893.25 1013.29 870.79 1016.78 862.21 1035.05H993.38C996.67 1019.77 999.47 1004.7 1001.17 989.33 1001.37 987.43 1001.67 985.13 1001.86 982.94 1001.86 982.94 1001.86 982.84 1001.77 982.84L960.94 966.67 916.01 965.47Z" fill="#231f20" opacity="1" stroke-width="4" stroke="none"></path><path d="M885.76 297.82C883.96 301.82 890.25 307.11 890.85 307.61V307.71C887.25 319.09 885.26 332.86 890.25 340.75 896.24 350.63 908.72 353.43 923.19 351.53 923.29 351.53 923.29 351.53 923.29 351.63L922.19 358.12 976.9 367.9C977 367.9 977 367.9 977 367.8 977.7 364.91 986.38 359.92 986.88 356.72 987.38 354.13 987.68 351.33 988.18 348.54 990.97 332.86 990.67 315.19 992.67 303.41 996.36 281.15 999.86 264.68 974.1 248.01 958.83 238.13 940.26 236.63 923.29 241.02 923.29 241.02 900.33 245.51 899.33 273.07 899.33 273.17 894.64 292.33 894.24 293.53 894.24 293.53 894.24 293.63 894.14 293.63 893.64 293.83 887.05 294.63 885.76 297.82Z" fill="#d08058" opacity="1" stroke-width="4" stroke="none"></path><path d="M922.39 358.12C923.79 357.82 935.17 355.12 943.56 345.04 943.66 344.94 943.56 344.84 943.46 344.84 934.87 349.33 924.29 351.33 923.49 351.53 923.49 351.53 923.39 351.53 923.39 351.63L922.29 358.02C922.19 358.02 922.29 358.12 922.39 358.12Z" fill="#000000" opacity="0.15" stroke-width="4" stroke="none"></path><path d="M1038.89 412.32C1027.91 385.47 1008.54 368.8 985.98 364.21 985.88 364.21 985.88 364.11 985.88 364.11L986.98 356.82C986.98 356.72 986.98 356.72 986.88 356.72L922.59 356.92C922.49 356.92 922.39 357.02 922.39 357.12L921.19 363.41C921.19 363.51 921.19 363.51 921.09 363.51 919.9 363.61 906.42 364.41 888.75 368.4 861.9 374.39 825.16 423.11 796.21 457.85H796.11L752.19 437.98H752.09L730.13 465.93 721.34 506.16V506.26C743.8 521.54 772.55 537.11 797.11 536.61 838.44 535.61 875.17 494.58 877.67 491.79 877.77 491.69 877.87 491.79 877.87 491.89L887.25 542.6C887.25 542.6 887.25 542.9 887.35 542.9L1001.26 544.5 1026.51 566.26C1026.51 566.26 1026.51 566.26 1026.61 566.26 1027.51 566.26 1043.28 565.76 1051.97 544.5 1057.66 529.12 1050.17 440.18 1038.89 412.32Z" fill="#cecdce" opacity="1" stroke-width="4" stroke="none"></path><path d="M907.62 459.64L904.22 542.6C904.22 542.7 904.22 542.7 904.12 542.7H887.25C887.25 542.7 887.15 542.7 887.15 542.6L877.77 491.69V491.59L907.42 459.44C907.52 459.44 907.62 459.54 907.62 459.64Z" fill="#000000" opacity="0.2" stroke-width="4" stroke="none"></path><path d="M899.43 273.17C911.61 288.04 932.08 302.61 933.27 303.51H933.37C934.57 302.51 956.73 284.75 968.31 295.63 983.69 309.4 962.02 329.97 955.34 333.46 955.24 333.46 955.24 333.56 955.34 333.66 969.11 347.94 986.88 348.54 988.18 348.54 988.18 348.54 988.28 348.54 988.28 348.44 991.07 333.66 994.67 314.49 996.36 304.41 1000.06 282.15 1001.36 258.29 975.7 241.62 960.43 231.74 939.06 231.34 922.19 235.73H922.09C921.39 234.83 910.51 221.46 895.14 229.74 881.76 238.53 886.85 257.79 899.43 273.17Z" fill="#231f20" opacity="1" stroke-width="4" stroke="none"></path><path d="M905.63 300.42C907.28 300.42 908.63 299.08 908.63 297.42 908.63 295.77 907.28 294.43 905.63 294.43 903.97 294.43 902.64 295.77 902.64 297.42 902.64 299.08 903.97 300.42 905.63 300.42Z" fill="#231f20" opacity="1" stroke-width="4" stroke="none"></path><path d="M642.18 401.64C642.28 401.64 642.38 401.54 642.28 401.44 636.79 398.25 635.29 386.67 642.18 388.77 665.74 395.85 692.99 410.13 713.85 420.51L713.95 420.61 705.67 454.55 687.5 478.41C687.5 478.41 687.5 478.41 687.4 478.41 675.52 478.81 656.95 474.12 643.57 463.84 643.57 463.84 643.57 463.84 643.48 463.84 623.61 462.24 603.34 459.54 602.45 454.65 601.35 448.76 625.11 448.16 632.29 448.06 632.39 448.06 632.39 447.86 632.29 447.86 624.81 445.17 582.98 441.37 595.46 424.7V424.6C589.97 416.22 597.65 411.93 600.15 411.73 600.25 411.73 600.25 411.63 600.25 411.63 599.75 410.63 596.56 404.44 600.95 400.45 603.94 397.85 635.49 400.65 642.18 401.64Z" fill="#d08058" opacity="1" stroke-width="4" stroke="none"></path><path d="M713.85 420.61L687.5 478.41V478.51C698.78 488.59 708.66 497.68 721.24 506.06 721.34 506.06 721.34 506.06 721.34 506.06L752.09 437.98C752.09 437.88 752.09 437.88 752.09 437.88L714.05 420.51C713.85 420.51 713.85 420.51 713.85 420.61Z" fill="#fcfbfc" opacity="1" stroke-width="4" stroke="none"></path><path d="M1001.16 542.6L1014.03 484.6C1014.03 484.5 1014.23 484.5 1014.23 484.6L1016.33 558.87C1016.33 558.97 1016.23 558.97 1016.13 558.97L1001.16 542.6Z" fill="#000000" opacity="0.2" stroke-width="4" stroke="none"></path><path d="M1196.92 893.39C1192.13 879.92 1187.13 867.74 1181.94 856.56 1160.58 810.14 1138.02 782.58 1124.24 763.02 1096.89 724.48 1085.21 665.09 1061.65 617.27 1038.59 570.05 1002.25 543.4 1001.16 542.6 1001.16 542.6 1001.16 542.6 1001.06 542.6H968.21L887.35 542.7C887.25 542.7 887.25 542.7 887.25 542.8 886.95 546.29 876.47 662.49 891.55 804.55 894.84 835.59 902.63 871.93 908.52 904.97 912.61 927.73 915.6 948.7 915.9 965.37 915.9 965.37 915.9 965.47 916 965.47L968.31 976.15 1001.76 982.74C1001.85 982.74 1001.85 982.74 1001.85 982.64 1003.15 970.56 1004.35 957.18 1005.25 941.61 1005.75 928.63 1005.85 916.45 1005.65 904.97 1004.35 852.36 993.97 817.22 988.58 793.27 983.49 770.41 986.48 744.15 990.37 717 990.57 717 990.37 717 990.57 717 1005.35 747.64 1021.72 779.69 1038.99 810.94 1052.87 836.19 1072.03 864.14 1089.5 890.4 1102.38 909.96 1113.86 928.23 1121.45 944.1L1121.55 944.2 1208.6 928.63C1208.7 928.63 1208.7 928.53 1208.7 928.53 1205.4 918.05 1201.61 906.57 1196.92 893.39Z" fill="#61ccff" opacity="1" stroke-width="4" stroke="none"></path><path d="M1016.63 769.11C1016.73 769.21 1016.83 769.21 1016.83 769.01L1010.24 698.43C1008.94 684.35 1006.15 670.28 1001.85 656.8L998.26 645.42C998.26 645.32 998.06 645.32 998.06 645.42 997.96 668.78 993.87 693.04 990.37 716.7 990.37 716.7 990.37 716.7 990.37 716.8 998.76 733.97 1007.55 751.54 1016.63 769.11Z" fill="#24343b" opacity="0.2" stroke-width="4" stroke="none"></path><path d="M905.92 315.19C904.92 317.99 900.33 320.18 897.54 319.19" stroke="#000000" stroke-width="4" stroke-linecap="round" stroke-linejoin="round" opacity="1" fill="none"></path><path d="M943.46 344.84C937.37 347.94 926.39 351.03 923.29 351.63" stroke="#000000" stroke-width="4" stroke-linecap="round" stroke-linejoin="round" opacity="1" fill="none"></path><path d="M955.44 310.6L946.35 317.89" stroke="#000000" stroke-width="4" stroke-linecap="round" stroke-linejoin="round" opacity="1" fill="none"></path><path d="M877.68 491.79L907.43 459.54" stroke="#000000" stroke-width="4" stroke-linecap="round" stroke-linejoin="round" opacity="1" fill="none"></path><path d="M600.25 411.83C600.25 411.83 632.59 414.52 653.56 419.11" stroke="#000000" stroke-width="4" stroke-linecap="round" stroke-linejoin="round" opacity="1" fill="none"></path><path d="M642.18 401.44L658.15 404.14" stroke="#000000" stroke-width="4" stroke-linecap="round" stroke-linejoin="round" opacity="1" fill="none"></path><path d="M595.56 424.9C595.56 424.9 630 431.79 647.87 435.19" stroke="#000000" stroke-width="4" stroke-linecap="round" stroke-linejoin="round" opacity="1" fill="none"></path><path d="M990.57 717.1C994.57 690.04 997.66 672.28 998.26 645.52" stroke="#354d58" stroke-width="4" stroke-linecap="round" stroke-linejoin="round" opacity="1" fill="none"></path><path d="M1151.6 969.06L1130.23 968.96" stroke="#cecdce" stroke-width="4" stroke-linecap="round" stroke-linejoin="round" opacity="1" fill="none"></path><path d="M1149.6 985.73L1128.93 982.04" stroke="#cecdce" stroke-width="4" stroke-linecap="round" stroke-linejoin="round" opacity="1" fill="none"></path><path d="M931.78 997.21L912.91 989.03" stroke="#cecdce" stroke-width="4" stroke-linecap="round" stroke-linejoin="round" opacity="1" fill="none"></path><path d="M923.29 1011.79L905.32 999.71" stroke="#cecdce" stroke-width="4" stroke-linecap="round" stroke-linejoin="round" opacity="1" fill="none"></path><path d="M914.12 542.8C914.12 542.8 914.62 691.74 927.59 785.28 940.57 878.82 954.05 948 951.45 972.36" stroke="#24343b" stroke-width="4" stroke-linecap="round" stroke-linejoin="round" opacity="1" fill="none"></path><path d="M1001.16 542.6L1014.03 484.6" stroke="#000000" stroke-width="4" stroke-linecap="round" stroke-linejoin="round" opacity="1" fill="none"></path></g></svg>